# xmcd
#
# Track frame offsets:
#	150
#	19374
#	44360
#	81654
#	104825
#	121538
#	157829
#	177620
#	197494
#	234906
#	259413
#
# Disc length: 4123 seconds
#
# Revision: 2
# Processed by: cddbd v1.4PL0 Copyright (c) Steve Scherf et al.
# Submitted via: audiograbber 1.81.03
#
DISCID=9310190b
DTITLE=Luther Allison - Pay It Forward
DYEAR=1900
DGENRE=
TTITLE0=I Wanna Be With You
TTITLE1=Still Called The Blues
TTITLE2=Dock Of The Bay
TTITLE3=Just As I Am
TTITLE4=Nobody But You
TTITLE5=Perfume and Grime
TTITLE6=Cherry Red Wine
TTITLE7=Idols In Mind
TTITLE8=Hoochie Coochie Man
TTITLE9=Slipping Away
TTITLE10=Love Is Free
EXTD=
EXTT0=
EXTT1=
EXTT2=
EXTT3=
EXTT4=
EXTT5=
EXTT6=
EXTT7=
EXTT8=
EXTT9=
EXTT10=
PLAYORDER=
